<svg width="20" height="20" viewBox="0 0 20 20" fill="none" xmlns="http://www.w3.org/2000/svg">
<path d="M0.933215 1.33005C0.841988 1.32888 0.751609 1.34768 0.668424 1.38515C0.585239 1.42262 0.511264 1.47785 0.451693 1.54695C0.392122 1.61605 0.3484 1.69736 0.323595 1.78515C0.298791 1.87295 0.293505 1.96512 0.30811 2.05517L2.96168 18.1641C2.99474 18.3612 3.0962 18.5404 3.24825 18.6702C3.40029 18.7999 3.59319 18.8719 3.79307 18.8736H16.5233C16.6731 18.8755 16.8187 18.8236 16.9334 18.7272C17.0482 18.6308 17.1245 18.4964 17.1484 18.3485L19.802 2.0583C19.8166 1.96824 19.8113 1.87608 19.7865 1.78828C19.7617 1.70048 19.718 1.61918 19.6584 1.55008C19.5988 1.48097 19.5249 1.42575 19.4417 1.38828C19.3585 1.35081 19.2681 1.332 19.1769 1.33318L0.933215 1.33005ZM12.107 12.9726H8.04378L6.94359 7.22479H13.0915L12.107 12.9726Z" fill="#FF00FF"/>
<path d="M18.9586 7.22478H13.092L12.1074 12.9726H8.04426L3.24658 18.6673C3.39865 18.7988 3.59252 18.8719 3.79355 18.8736H16.5269C16.6768 18.8755 16.8223 18.8236 16.937 18.7272C17.0518 18.6308 17.1281 18.4964 17.152 18.3485L18.9586 7.22478Z" fill="url(#paint0_linear)"/>
<defs>
<linearGradient id="paint0_linear" x1="20.3151" y1="8.83442" x2="10.6197" y2="16.4013" gradientUnits="userSpaceOnUse">
<stop offset="0.18" stop-color="white" stop-opacity="0.43"/>
<stop offset="1" stop-color="white" stop-opacity="0"/>
</linearGradient>
</defs>
</svg>
