<svg width="20" height="20" viewBox="0 0 20 20" fill="none" xmlns="http://www.w3.org/2000/svg">
<g clip-path="url(#clip0)">
<path fill-rule="evenodd" clip-rule="evenodd" d="M7.10221 16.8494H1.15868C0.533792 16.8494 0.250511 16.5765 0.117202 16.3474C-0.174412 15.8433 0.119285 15.2747 0.17969 15.1663L7.29506 2.65613C7.60334 2.11456 7.98243 2 8.24697 2C8.83228 2 9.1718 2.54573 9.22804 2.6478L11.2381 6.18882L11.1484 6.34753L11.2385 6.18912L11.2383 6.18877L11.9944 4.86401C12.3027 4.32244 12.6818 4.20996 12.9463 4.20996C13.5337 4.20996 13.8711 4.75778 13.9315 4.86609L19.7784 15.1663C20.0929 15.7037 19.9992 16.089 19.868 16.3182C19.5722 16.8222 18.9348 16.8493 18.8077 16.8493H15.3732C15.3686 16.8494 15.3645 16.8494 15.3608 16.8494H7.11231C7.10893 16.8494 7.10556 16.8494 7.10221 16.8494ZM15.3782 16.8493C15.459 16.8483 15.6771 16.8362 15.9055 16.7466C15.6811 16.8345 15.4659 16.8478 15.3782 16.8493ZM16.5377 15.6787H18.7369L12.9526 5.52847L11.9133 7.36795L11.9156 7.37196L16.346 15.1664C16.4403 15.3242 16.5052 15.4978 16.5377 15.6787ZM10.5677 7.36877L8.26363 3.31851L1.23991 15.6788H5.96614C5.96314 15.6964 5.9606 15.7142 5.95852 15.7319C5.96078 15.7142 5.9635 15.6964 5.96668 15.6788C5.99372 15.4994 6.0515 15.3261 6.13748 15.1664L10.5658 7.37196L10.5677 7.36877ZM15.2879 15.6788L11.2386 8.55508L7.19146 15.6788H15.2879Z" fill="#FF00FF"/>
</g>
<defs>
<clipPath id="clip0">
<rect width="20" height="20" fill="white"/>
</clipPath>
</defs>
</svg>
