<svg width="20" height="20" viewBox="0 0 20 20" fill="none" xmlns="http://www.w3.org/2000/svg">
<g clip-path="url(#clip0)">
<path fill-rule="evenodd" clip-rule="evenodd" d="M6.07653 16.3474C6.06169 16.3211 6.04847 16.294 6.03696 16.2661C5.95706 16.0813 5.93246 15.8773 5.96614 15.6788H1.23991L8.26363 3.31851L10.5695 7.37194L11.2381 6.18882L9.22804 2.6478C9.1718 2.54573 8.83228 2 8.24697 2C7.98243 2 7.60334 2.11456 7.29506 2.65613L0.17969 15.1663C0.119285 15.2747 -0.174412 15.8433 0.117202 16.3474C0.250511 16.5765 0.533792 16.8494 1.15868 16.8494H7.11801C6.49729 16.8494 6.20984 16.5807 6.07653 16.3474Z" fill="#00C58E"/>
<path fill-rule="evenodd" clip-rule="evenodd" d="M19.7784 15.1663L13.9315 4.86609C13.8711 4.75778 13.5337 4.20996 12.9463 4.20996C12.6818 4.20996 12.3027 4.32244 11.9944 4.86401L11.2383 6.18877L11.9111 7.37188L12.9526 5.52847L18.7369 15.6787H16.5373C16.5655 15.8465 16.5497 16.0187 16.4915 16.1786C16.4792 16.2139 16.4639 16.2481 16.4457 16.2807L16.4269 16.3182C16.1311 16.8222 15.4917 16.8493 15.3667 16.8493H18.8077C18.9348 16.8493 19.5722 16.8222 19.868 16.3182C19.9992 16.089 20.0929 15.7037 19.7784 15.1663Z" fill="#108775"/>
<path d="M16.4273 16.3182L16.446 16.2808C16.4643 16.2481 16.4796 16.214 16.4918 16.1787C16.55 16.0188 16.5658 15.8466 16.5377 15.6788C16.5053 15.4978 16.4403 15.3242 16.346 15.1664L11.9156 7.37196L11.2386 6.18884L10.5658 7.37196L6.13748 15.1664C6.0515 15.3261 5.99372 15.4994 5.96668 15.6788C5.93104 15.8767 5.95347 16.0807 6.03125 16.2662C6.04277 16.294 6.05599 16.3212 6.07083 16.3474C6.20414 16.5765 6.48742 16.8494 7.11231 16.8494H15.3608C15.492 16.8494 16.1315 16.8223 16.4273 16.3182ZM11.2386 8.55508L15.2879 15.6788H7.19146L11.2386 8.55508Z" fill="#2F495E"/>
</g>
<defs>
<clipPath id="clip0">
<rect width="20" height="20" fill="white"/>
</clipPath>
</defs>
</svg>
